<svg width="61" height="61" viewBox="0 0 61 61" fill="none" xmlns="http://www.w3.org/2000/svg">
<g clip-path="url(#clip0_2144_3199)">
<path d="M30.5002 5.0835C20.6639 5.0835 12.7085 13.0389 12.7085 22.8752C12.7085 36.2189 30.5002 55.9168 30.5002 55.9168C30.5002 55.9168 48.2918 36.2189 48.2918 22.8752C48.2918 13.0389 40.3364 5.0835 30.5002 5.0835ZM17.7918 22.8752C17.7918 15.8602 23.4852 10.1668 30.5002 10.1668C37.5152 10.1668 43.2085 15.8602 43.2085 22.8752C43.2085 30.1952 35.8885 41.1497 30.5002 47.9868C25.2135 41.2006 17.7918 30.1189 17.7918 22.8752Z" fill="#27CEC9"/>
<path d="M30.5002 29.2293C34.0095 29.2293 36.8543 26.3845 36.8543 22.8752C36.8543 19.3659 34.0095 16.521 30.5002 16.521C26.9909 16.521 24.146 19.3659 24.146 22.8752C24.146 26.3845 26.9909 29.2293 30.5002 29.2293Z" fill="#27CEC9"/>
</g>
<defs>
<clipPath id="clip0_2144_3199">
<rect width="61" height="61" fill="white"/>
</clipPath>
</defs>
</svg>
