<svg width="221" height="58" viewBox="0 0 221 58" fill="none" xmlns="http://www.w3.org/2000/svg">
<g clip-path="url(#clip0_23_922)">
<path d="M34.4464 0H0V34.8993L34.4464 0Z" fill="#6DBE51"/>
<path d="M34.6707 28.7222C30.9986 26.8573 26.9906 25.6201 22.5168 25.6201C16.9952 25.6201 11.5945 27.5301 7.68945 30.4109L34.6707 58.0044V28.7222Z" fill="#A3D365"/>
<path d="M22.6154 23.6062C27.0354 23.6062 30.9225 24.6402 34.6708 26.4554V2.52393L11.6572 25.8549C14.9622 24.3919 18.6164 23.6062 22.6154 23.6062Z" fill="#27CEC9"/>
<path d="M147.652 13.4736H144.083C143.514 13.4736 143.057 13.9387 143.057 14.5077V34.2489L128.163 13.8936C127.97 13.6272 127.661 13.4736 127.334 13.4736H124.62C124.052 13.4736 123.595 13.9387 123.595 14.5077V27.7016L128.225 39.7215C128.431 40.2543 129.219 40.1053 129.219 39.5319V23.57L144.159 44.0563C144.351 44.3227 144.66 44.4807 144.987 44.4807H147.656C148.225 44.4807 148.682 44.0156 148.682 43.4467V14.5077C148.682 13.9342 148.22 13.4736 147.656 13.4736H147.652Z" fill="#666666"/>
<path d="M68.0155 41.5321C68.4409 42.0378 68.2931 42.8235 67.7065 43.1215C65.3464 44.3045 62.7759 44.896 60.0398 44.896C55.0197 44.896 51.0027 43.3563 47.9441 40.2768C44.8855 37.238 43.3584 33.4496 43.3584 29.0064C43.3584 24.5633 44.8855 20.7704 47.9441 17.6909C50.9982 14.6566 55.0152 13.1123 60.0398 13.1123C62.7625 13.1123 65.3061 13.7083 67.693 14.9185C68.2752 15.212 68.4275 15.9841 68.0155 16.4898C67.7602 16.8059 67.4691 17.1716 67.1915 17.5419C66.8735 17.9663 66.6048 18.3727 66.4078 18.7069C66.148 19.1403 65.6107 19.3119 65.1449 19.1178C63.5328 18.454 61.849 18.1289 60.0845 18.1289C56.7214 18.1289 54.0166 19.1448 52.0506 21.2129C50.0847 23.2809 49.0816 25.8818 49.0816 29.0064C49.0816 32.1311 50.0847 34.6868 52.0506 36.7548C54.0166 38.8229 56.7214 39.8794 60.0845 39.8794C61.8758 39.8794 63.5731 39.5543 65.1763 38.8906C65.633 38.7009 66.157 38.868 66.4257 39.2879C66.6451 39.6311 66.9049 40.042 67.1512 40.4077C67.3751 40.7509 67.7109 41.1663 68.0244 41.5366L68.0155 41.5321Z" fill="#666666"/>
<path d="M67.9395 29.0022C67.9395 24.6448 69.5113 20.9016 72.655 17.7724C75.7987 14.6478 79.5559 13.1035 83.9222 13.1035C88.2885 13.1035 92.0457 14.6433 95.1894 17.7724C98.3331 20.8971 99.905 24.6403 99.905 29.0022C99.905 33.364 98.3331 37.1027 95.1894 40.2274C92.0457 43.352 88.2885 44.8963 83.9222 44.8963C79.5559 44.8963 75.7987 43.3565 72.655 40.2274C69.5113 37.1027 67.9395 33.3595 67.9395 29.0022ZM73.6178 29.0022C73.6178 32.0816 74.6209 34.6373 76.6317 36.7054C78.6424 38.7734 81.083 39.7849 83.9222 39.7849C86.7614 39.7849 89.2065 38.7734 91.2127 36.7054C93.2235 34.6373 94.2266 32.0816 94.2266 29.0022C94.2266 25.9227 93.2235 23.367 91.2127 21.2944C89.202 19.2264 86.7614 18.2149 83.9222 18.2149C81.083 18.2149 78.6379 19.2264 76.6317 21.2944C74.6209 23.367 73.6178 25.9182 73.6178 29.0022Z" fill="#666666"/>
<path d="M177.817 28.9569C177.817 33.26 176.321 36.94 173.285 39.9563C170.249 42.9726 166.424 44.4807 161.847 44.4807H151.964C151.395 44.4807 150.938 44.0156 150.938 43.4467V14.5077C150.938 13.9342 151.4 13.4736 151.964 13.4736H161.847C166.424 13.4736 170.253 14.9818 173.285 17.9574C176.321 20.9737 177.817 24.6537 177.817 28.9614V28.9569ZM172.053 28.9569C172.053 25.8954 171.086 23.3217 169.147 21.1904C167.212 19.0637 164.794 17.998 161.843 17.998H157.593C157.024 17.998 156.568 18.4631 156.568 19.0321V38.9178C156.568 39.4912 157.029 39.9518 157.593 39.9518H161.843C164.79 39.9518 167.212 38.8907 169.147 36.7143C171.081 34.583 172.053 32.0093 172.053 28.9523V28.9569Z" fill="#666666"/>
<path d="M102.878 44.5304H99.2821C98.5611 44.5304 98.064 43.7989 98.3237 43.1216L109.412 14.1374C109.564 13.74 109.945 13.4736 110.37 13.4736H114.813C115.238 13.4736 115.619 13.7355 115.771 14.1329L126.94 43.1171C127.199 43.7944 126.707 44.5259 125.981 44.5259H122.421C121.996 44.5259 121.615 44.264 121.463 43.8621L119.64 39.1074C119.488 38.7101 119.107 38.4437 118.682 38.4437H106.55C106.12 38.4437 105.735 38.7146 105.587 39.1165L103.841 43.8486C103.693 44.255 103.308 44.5214 102.878 44.5214V44.5304ZM117.759 33.838L112.614 19.2443L107.419 33.838H117.759Z" fill="#666666"/>
<path d="M195.998 40.2634C195.963 40.1776 195.931 40.0918 195.904 40.0105H185.591V31.5803H195.192V27.0514H185.591V18.0432H197.409C197.852 16.2822 198.753 14.765 199.984 13.5459V13.4736H180.987C180.419 13.4736 179.962 13.9387 179.962 14.5077V43.5009C179.962 44.0743 180.423 44.5349 180.987 44.5349H199.079C197.727 43.3474 196.679 41.9024 195.998 40.2634Z" fill="#666666"/>
<path d="M202.725 35.5853C203.213 35.477 203.701 35.7343 203.893 36.1994C204.825 38.4345 207.019 39.9201 209.952 39.9201C213.226 39.9201 215.456 38.4255 215.456 36.0007C215.456 34.2397 214.104 32.8761 211.439 31.9053L207.507 30.5417C202.487 28.871 199.997 25.9631 199.997 21.8721C199.997 19.2306 200.96 17.1174 202.922 15.4874C204.843 13.9025 207.243 13.1123 210.127 13.1123C214.798 13.1123 218.282 15.361 219.89 19.1629C220.113 19.6957 219.876 20.3143 219.343 20.5401L216.491 21.7412C215.989 21.9534 215.411 21.7322 215.174 21.2355C214.184 19.1584 212.509 18.1334 210.127 18.1334C207.507 18.1334 205.586 19.4564 205.586 21.7863C205.586 23.5022 206.809 24.7846 209.209 25.6199L213.141 27.0738C218.6 28.8348 220.955 32.2665 221 35.793C221 38.6558 219.952 40.8548 217.856 42.4848C215.761 44.1104 213.186 44.9051 210.087 44.9051C206.988 44.9051 204.543 44.1149 202.402 42.5706C200.579 41.2566 199.357 39.6266 198.793 37.6172C198.631 37.0438 198.976 36.4478 199.554 36.3168L202.725 35.5989V35.5853Z" fill="#666666"/>
</g>
<defs>
<clipPath id="clip0_23_922">
<rect width="221" height="58" fill="white"/>
</clipPath>
</defs>
</svg>
