<?xml version="1.0" encoding="UTF-8" standalone="no"?>
<svg
   version="1.0"
   width="566.000000pt"
   height="116.000000pt"
   viewBox="0 0 566.000000 116.000000"
   preserveAspectRatio="xMidYMid meet"
   id="svg20"
   sodipodi:docname="logo-color.svg"
   inkscape:version="1.1.2 (0a00cf5339, 2022-02-04)"
   xmlns:inkscape="http://www.inkscape.org/namespaces/inkscape"
   xmlns:sodipodi="http://sodipodi.sourceforge.net/DTD/sodipodi-0.dtd"
   xmlns="http://www.w3.org/2000/svg"
   xmlns:svg="http://www.w3.org/2000/svg">
  <defs
     id="defs24" />
  <sodipodi:namedview
     id="namedview22"
     pagecolor="#ffffff"
     bordercolor="#666666"
     borderopacity="1.0"
     inkscape:pageshadow="2"
     inkscape:pageopacity="0.0"
     inkscape:pagecheckerboard="0"
     inkscape:document-units="pt"
     showgrid="false"
     inkscape:zoom="1.5583039"
     inkscape:cx="377.97506"
     inkscape:cy="77.327664"
     inkscape:window-width="1920"
     inkscape:window-height="1024"
     inkscape:window-x="1440"
     inkscape:window-y="28"
     inkscape:window-maximized="1"
     inkscape:current-layer="g18" />
  <g
     transform="translate(0.000000,116.000000) scale(0.100000,-0.100000)"
     fill="#fill"
     stroke="none"
     id="g18">
    <path
       d="M70 595 l0 -505 223 0 c247 0 335 14 424 65 135 80 213 240 213 440 0 256 -139 448 -358 494 -30 6 -151 11 -277 11 l-225 0 0 -505z m482 257 c107 -52 156 -217 111 -375 -32 -114 -116 -167 -265 -167 l-68 0 0 286 0 286 88 -4 c63 -3 100 -10 134 -26z"
       id="path2" />
    <path
       d="M1080 595 l0 -505 275 0 275 0 0 110 0 109 -152 3 -153 3 0 280 0 280 153 3 152 3 0 109 0 110 -275 0 -275 0 0 -505z"
       id="path4" />
    <path
       d="M1790 596 l0 -506 120 0 119 0 3 158 3 157 130 6 c105 4 140 10 182 28 141 62 221 246 179 411 -29 113 -96 192 -196 230 -25 10 -110 15 -287 18 l-253 4 0 -506z m415 273 c65 -17 90 -48 89 -116 0 -49 -4 -59 -31 -84 -35 -31 -87 -42 -173 -37 l-55 3 -3 109 c-1 61 0 116 2 123 7 16 109 18 171 2z"
       id="path6" />
    <path
       d="M2642 733 c6 -406 8 -423 70 -515 87 -128 277 -182 454 -127 57 18 77 31 130 83 91 91 104 139 104 387 l0 189 -125 0 -125 0 0 -175 c0 -184 -7 -222 -46 -257 -31 -27 -93 -32 -134 -11 -68 35 -70 45 -70 441 l0 352 -131 0 -131 0 4 -367z"
       id="path8" />
    <path
       d="M3160 990 l0 -110 115 0 115 0 0 110 0 110 -115 0 -115 0 0 -110z"
       id="path10"
       style="fill:#1ee492;fill-opacity:1" />
    <path
       d="M3580 596 l0 -506 120 0 120 0 0 160 c0 88 3 160 8 160 4 0 57 -72 117 -160 l110 -160 144 0 c113 0 141 3 134 13 -116 145 -255 329 -252 331 2 1 22 8 45 14 168 48 247 289 156 474 -37 76 -92 128 -161 154 -38 15 -89 18 -293 22 l-248 4 0 -506z m438 259 c41 -25 62 -65 62 -120 0 -97 -67 -148 -187 -143 l-68 3 -3 129 c-1 72 0 136 3 144 8 21 153 11 193 -13z"
       id="path12" />
    <path
       d="M4771 1078 c-5 -13 -93 -237 -195 -499 -102 -262 -186 -479 -186 -482 0 -4 60 -7 133 -7 l132 0 109 310 c60 171 111 310 115 310 3 0 54 -139 112 -308 l107 -307 136 -3 c75 -1 136 -1 136 0 0 2 -87 228 -194 503 l-193 500 -102 3 c-97 3 -102 2 -110 -20z"
       id="path14" />
    <path
       d="M1410 595 l0 -115 110 0 110 0 0 115 0 115 -110 0 -110 0 0 -115z"
       id="path16"
       style="fill:#1ee492;fill-opacity:1" />
  </g>
</svg>
