<svg width="52" height="56" viewBox="0 0 52 56" fill="none" xmlns="http://www.w3.org/2000/svg">
<path d="M10.8333 6.98267C8.43917 6.98267 6.5 9.05186 6.5 11.6066V43.9739C6.5 46.5286 8.43917 48.5978 10.8333 48.5978H41.1667C43.5608 48.5978 45.5 46.5286 45.5 43.9739V11.6066C45.5 9.05186 43.5608 6.98267 41.1667 6.98267H10.8333ZM10.8333 11.6066H41.1667V43.9739H10.8333V11.6066ZM16.8551 14.65C14.9983 14.65 13.8844 15.8411 13.8844 17.4271C13.8844 19.0131 14.9984 20.1996 16.6689 20.1996C18.5258 20.1996 19.6396 19.0131 19.6396 17.4271C19.6396 15.8411 18.5256 14.65 16.8551 14.65ZM14.0326 23.1663V39.35H19.5V23.1663H14.0326ZM24.0111 23.1663V39.35H29.4785V30.504C29.4785 27.8707 31.2392 27.4922 31.7679 27.4922C32.2966 27.4922 33.7103 28.058 33.7103 30.504V39.35H39V30.504C39 25.4247 36.8848 23.1663 34.2393 23.1663C31.5938 23.1663 30.1827 24.1063 29.4785 25.4241V23.1663H24.0111Z" fill="white"/>
</svg>
