<svg width="55" height="58" viewBox="0 0 55 58" fill="none" xmlns="http://www.w3.org/2000/svg">
<path d="M36.6667 7.19751C42.9848 7.19751 48.125 12.5789 48.125 19.1935V38.387C48.125 45.0016 42.9848 50.383 36.6667 50.383H18.3333C12.0152 50.383 6.875 45.0016 6.875 38.387V19.1935C6.875 12.5789 12.0152 7.19751 18.3333 7.19751H36.6667ZM36.6667 11.9959H18.3333C14.5429 11.9959 11.4583 15.2252 11.4583 19.1935V38.387C11.4583 42.3553 14.5429 45.5846 18.3333 45.5846H36.6667C40.4571 45.5846 43.5417 42.3553 43.5417 38.387V19.1935C43.5417 15.2252 40.4571 11.9959 36.6667 11.9959ZM16.0417 14.3951C16.6495 14.3951 17.2323 14.6479 17.6621 15.0978C18.0919 15.5477 18.3333 16.158 18.3333 16.7943C18.3333 17.4306 18.0919 18.0408 17.6621 18.4908C17.2323 18.9407 16.6495 19.1935 16.0417 19.1935C15.4339 19.1935 14.851 18.9407 14.4212 18.4908C13.9914 18.0408 13.75 17.4306 13.75 16.7943C13.75 16.158 13.9914 15.5477 14.4212 15.0978C14.851 14.6479 15.4339 14.3951 16.0417 14.3951ZM27.5 16.7943C33.8181 16.7943 38.9583 22.1757 38.9583 28.7903C38.9583 35.4048 33.8181 40.7862 27.5 40.7862C21.1819 40.7862 16.0417 35.4048 16.0417 28.7903C16.0417 22.1757 21.1819 16.7943 27.5 16.7943ZM27.5 21.5927C23.7096 21.5927 20.625 24.822 20.625 28.7903C20.625 32.7585 23.7096 35.9878 27.5 35.9878C31.2904 35.9878 34.375 32.7585 34.375 28.7903C34.375 24.822 31.2904 21.5927 27.5 21.5927Z" fill="white"/>
</svg>
