<svg width="58" height="38" viewBox="0 0 58 38" fill="none" xmlns="http://www.w3.org/2000/svg">
<path d="M3 16.5C1.61929 16.5 0.5 17.6193 0.5 19C0.5 20.3807 1.61929 21.5 3 21.5V16.5ZM57.2678 20.7678C58.2441 19.7915 58.2441 18.2085 57.2678 17.2322L41.3579 1.32233C40.3816 0.34602 38.7986 0.34602 37.8223 1.32233C36.846 2.29864 36.846 3.88155 37.8223 4.85786L51.9645 19L37.8223 33.1421C36.846 34.1184 36.846 35.7014 37.8223 36.6777C38.7986 37.654 40.3816 37.654 41.3579 36.6777L57.2678 20.7678ZM3 21.5H55.5V16.5H3V21.5Z" fill="white"/>
</svg>
