<svg width="27" height="28" viewBox="0 0 27 28" fill="none" xmlns="http://www.w3.org/2000/svg">
<g clip-path="url(#clip0_229_1509)">
<path d="M21.4316 6.02375C19.3279 3.90875 16.5266 2.75 13.5454 2.75C7.40289 2.75 2.39664 7.75625 2.39664 13.8988C2.39664 15.8675 2.91414 17.78 3.88164 19.4675L2.30664 25.25L8.21289 23.6975C9.84414 24.5863 11.6779 25.0588 13.5454 25.0588C19.6879 25.0588 24.6941 20.0525 24.6941 13.91C24.6941 10.9288 23.5354 8.1275 21.4316 6.02375ZM13.5454 23.1687C11.8804 23.1687 10.2491 22.7188 8.82039 21.875L8.48289 21.6725L4.97289 22.595L5.90664 19.175L5.68164 18.8263C4.75914 17.3525 4.26414 15.6425 4.26414 13.8988C4.26414 8.79125 8.42664 4.62875 13.5341 4.62875C16.0091 4.62875 18.3379 5.59625 20.0816 7.35125C21.8366 9.10625 22.7929 11.435 22.7929 13.91C22.8154 19.0175 18.6529 23.1687 13.5454 23.1687ZM18.6304 16.2387C18.3491 16.1037 16.9766 15.4288 16.7291 15.3275C16.4704 15.2375 16.2904 15.1925 16.0991 15.4625C15.9079 15.7438 15.3791 16.3738 15.2216 16.5538C15.0641 16.745 14.8954 16.7675 14.6141 16.6213C14.3329 16.4862 13.4329 16.1825 12.3754 15.2375C11.5429 14.495 10.9916 13.5837 10.8229 13.3025C10.6654 13.0212 10.8004 12.875 10.9466 12.7288C11.0704 12.605 11.2279 12.4025 11.3629 12.245C11.4979 12.0875 11.5541 11.9637 11.6441 11.7837C11.7341 11.5925 11.6891 11.435 11.6216 11.3C11.5541 11.165 10.9916 9.7925 10.7666 9.23C10.5416 8.69 10.3054 8.7575 10.1366 8.74625C9.96789 8.74625 9.78789 8.74625 9.59664 8.74625C9.40539 8.74625 9.11289 8.81375 8.85414 9.095C8.60664 9.37625 7.88664 10.0512 7.88664 11.4237C7.88664 12.7963 8.88789 14.1238 9.02289 14.3038C9.15789 14.495 10.9916 17.3075 13.7816 18.5113C14.4454 18.8038 14.9629 18.9725 15.3679 19.0963C16.0316 19.31 16.6391 19.2762 17.1229 19.2087C17.6629 19.13 18.7766 18.5337 19.0016 17.8812C19.2379 17.2288 19.2379 16.6775 19.1591 16.5538C19.0804 16.43 18.9116 16.3737 18.6304 16.2387Z" fill="#6DBE51"/>
</g>
<defs>
<clipPath id="clip0_229_1509">
<rect width="27" height="27" fill="white" transform="translate(0 0.5)"/>
</clipPath>
</defs>
</svg>
