<svg xmlns="http://www.w3.org/2000/svg" viewBox="0 0 33.19 33.19"><defs><style>.cls-1{fill:#606060;}</style></defs><g id="Capa_2" data-name="Capa 2"><g id="ELEMENTS"><path class="cls-1" d="M16.59,0a16.6,16.6,0,1,0,16.6,16.59A16.59,16.59,0,0,0,16.59,0ZM12.35,23.32c0,.62-.22.84-.84.84H9.3c-.53,0-.77-.23-.77-.75V12.89c0-.5.23-.73.74-.73h2.38a.64.64,0,0,1,.7.67.85.85,0,0,1,0,.16C12.35,16.43,12.36,19.88,12.35,23.32ZM10.43,11.21A2.47,2.47,0,1,1,12.9,8.75,2.49,2.49,0,0,1,10.43,11.21ZM25.74,23.45a.63.63,0,0,1-.72.71H22.55c-.49,0-.72-.22-.72-.7,0-1.85,0-3.69,0-5.54a4.52,4.52,0,0,0-.16-1.27,1.72,1.72,0,0,0-1.57-1.37,1.83,1.83,0,0,0-1.91,1.07A3.76,3.76,0,0,0,17.81,18v5.42a.63.63,0,0,1-.72.71H14.68a.63.63,0,0,1-.7-.7V12.85a.62.62,0,0,1,.68-.69h2.48a.6.6,0,0,1,.67.68v.73l.28-.34a3.45,3.45,0,0,1,2.19-1.16,5.85,5.85,0,0,1,2.63.13,3.51,3.51,0,0,1,2.31,2.21A7.65,7.65,0,0,1,25.71,17C25.79,19.12,25.73,21.29,25.74,23.45Z"/></g></g></svg>